<?xml version="1.0" standalone="no"?><!DOCTYPE svg PUBLIC "-//W3C//DTD SVG 1.1//EN" "http://www.w3.org/Graphics/SVG/1.1/DTD/svg11.dtd"><svg t="1631538616575" class="icon" viewBox="0 0 1024 1024" version="1.1" xmlns="http://www.w3.org/2000/svg" p-id="4840" xmlns:xlink="http://www.w3.org/1999/xlink" width="200" height="200"><defs><style type="text/css"></style></defs><path d="M420.181333 663.466667a1148.672 1148.672 0 0 1 184.576 0 752.64 752.64 0 0 1 99.669334 12.501333c71.253333 14.421333 117.76 37.973333 137.685333 75.946667 14.933333 29.610667 14.933333 64.853333 0 94.506666-19.925333 37.973333-64.597333 63.018667-138.410667 75.946667-32.896 6.613333-66.218667 10.922667-99.669333 12.885333-31.018667 3.413333-62.037333 3.413333-93.397333 3.413334h-56.490667a269.269333 269.269333 0 0 0-34.304-2.261334 682.88 682.88 0 0 1-99.669333-12.544c-71.253333-13.653333-117.76-37.973333-137.685334-75.946666A104.106667 104.106667 0 0 1 170.666667 800.170667a102.954667 102.954667 0 0 1 11.434666-48.213334c19.584-37.973333 66.090667-62.634667 138.069334-75.946666 33.024-6.485333 66.432-10.666667 100.010666-12.501334zM512.128 85.333333c123.733333 0 224 103.168 224 230.4 0 127.274667-100.266667 230.4-224 230.4S288 443.050667 288 315.733333c0-127.232 100.309333-230.4 224.085333-230.4z" fill="#d81e06" p-id="4841"></path></svg>